<svg width="36" height="36" viewBox="0 0 36 36" fill="none" xmlns="http://www.w3.org/2000/svg">
<path d="M18 1.125C8.6805 1.125 1.125 8.6805 1.125 18C1.125 27.3195 8.6805 34.875 18 34.875C27.3195 34.875 34.875 27.3195 34.875 18C34.875 8.6805 27.3195 1.125 18 1.125ZM20.8125 29.1094H15.1875V15.6094H20.8125V29.1094ZM18 12.5156C17.2541 12.5156 16.5387 12.2193 16.0113 11.6919C15.4838 11.1644 15.1875 10.449 15.1875 9.70312C15.1875 8.9572 15.4838 8.24183 16.0113 7.71439C16.5387 7.18694 17.2541 6.89062 18 6.89062C18.7459 6.89062 19.4613 7.18694 19.9887 7.71439C20.5162 8.24183 20.8125 8.9572 20.8125 9.70312C20.8125 10.449 20.5162 11.1644 19.9887 11.6919C19.4613 12.2193 18.7459 12.5156 18 12.5156Z" fill="white" fill-opacity="0.65"/>
</svg>
